<?xml version="1.0" standalone="no"?>
<!DOCTYPE svg PUBLIC "-//W3C//DTD SVG 1.0//EN" "http://www.w3.org/TR/2001/REC-SVG-20010904/DTD/svg10.dtd">
<svg xmlns="http://www.w3.org/2000/svg" xmlns:xlink="http://www.w3.org/1999/xlink" id="body_1" width="65" height="49">

<g transform="matrix(2.0416667 0 0 2.0416667 8 -0)">
	<g>
	</g>
    <path d="M10.51 10.013L10.51 7.299C 10.51 6.993 10.758 6.745 11.064 6.745L11.064 6.745L12.975 6.745C 13.281 6.745 13.529 6.993 13.529 7.299L13.529 7.299L13.529 12.267C 13.529 12.343 13.491 12.401 13.453 12.458L13.453 12.458L12.975 12.936C 12.860001 13.051 12.860001 13.223 12.975 13.318L12.975 13.318L13.453 13.796C 13.51 13.853 13.529 13.910999 13.529 13.9869995L13.529 13.9869995L13.529 16.699999C 13.529 17.005999 13.281 17.254 12.975 17.254L12.975 17.254L11.064 17.254C 10.758 17.254 10.51 17.006 10.51 16.699999L10.51 16.699999L10.51 11.731998C 10.51 11.655998 10.548 11.597999 10.586 11.540998L10.586 11.540998L11.064 11.062999C 11.179 10.947999 11.179 10.775999 11.064 10.680999L11.064 10.680999L10.586 10.202999C 10.529 10.146 10.51 10.089 10.51 10.013zM19.127 12C 19.127 8.064 15.936001 4.873 12.000001 4.873C 8.064001 4.873 4.873 8.064 4.873 12C 4.873 15.936 8.064 19.127 12 19.127C 15.936 19.127 19.127 15.936 19.127 12zM21.382 12C 21.382 17.178 17.178 21.362999 12.019 21.362999C 6.841 21.362999 2.6560001 17.158998 2.6560001 11.999999C 2.6560001 6.821999 6.86 2.6369991 12.019 2.6369991C 17.178 2.637 21.382 6.822 21.382 12zM0.764 12C 0.764 18.21 5.789 23.236 12 23.236C 18.211 23.236 23.236 18.21 23.236 12C 23.236 5.790001 18.21 0.764 12 0.764C 5.790001 0.764 0.764 5.79 0.764 12zM0 12C 0 5.369 5.369 0 12 0C 18.631 0 24 5.369 24 12C 24 18.631 18.631 24 12 24C 5.3689995 24 0 18.631 0 12z" stroke="none" fill="#000000" fill-rule="nonzero" />
</g>
</svg>